<?xml version="1.0" standalone="yes"?>
<svg xmlns="http://www.w3.org/2000/svg" width="512" height="512">
<path style="fill:none; stroke:none;" d="M0 0L0 366L0 512L89 512L88.2222 511.25L87.6944 511.167L85.9722 510.611L85 510.306L83 509.611L81 508.75L80 508.222L79 507.778L78 507.222L77 506.75L75 505.556L74 504.833L72 503.361L71 502.611L69 500.917L67.0833 499L65.4167 497L64.6944 496L63.3333 494L62.0278 492L61.3889 491L60.8333 490L60.2778 489L59.8333 488L59.0278 486L58.6667 485L58 483L57.4167 481L57.1944 480L56.8056 478L56.6111 477L56.3889 476L56.0833 474L56.0278 473L56 471L56 470L56 467L56 454L56 397L56 119L56 63L56 48L56 42L56 40L56.0278 39L56.0833 38L56.3889 36L56.6111 35L57 33L57.4167 31L57.6944 30L58.3333 28L59.0278 26L59.3889 25L59.8333 24L60.2778 23L60.8333 22L61.3889 21L62.0278 20L63.3333 18L64.6944 16L65.4167 15L67.0833 13L69 11.0833L71 9.38889L72 8.63889L73 7.86111L75 6.44446L77 5.25L78 4.77777L80 3.77777L81 3.25L83 2.38889L84.9444 1.69446L86.5 1.25L88 1L87.2222 0.277771L86.6944 0.25L85.8889 0.055542L84.9722 0.027771L83 0L82 0L80 0L63 0L0 0z"/>
<path style="fill:#116fff; stroke:none;" d="M88 0.416656L87 0.694458L85 1.33334L83 2.02777L82 2.38889L80 3.25L79 3.77777L78 4.22223L77 4.77777L76 5.25L74 6.44446L73 7.16666L71 8.63889L70 9.38889L68.0278 11.0833L67.0833 12.0278L65.4167 14L64.6944 15L63.3333 17L62.0278 19L61.3889 20L60.8333 21L60.2778 22L59.8333 23L59.0278 25L58.6667 26L58 28L57.4167 30L57.1944 31L56.8056 33L56.6111 34L56.3889 35L56.0833 37L56.0278 38L56 39L56 41L56 46L56 62L56 108L56 382L56 453L56 467L56 470L56 472L56.0278 474L56.0833 475L56.3889 477L56.6111 478L56.8056 479L57.1944 481L57.4167 482L58 484L58.3333 485L58.6667 486L59.3889 488L60.2778 490L61.3889 492L62.0278 493L63.3333 495L64 496L65.4167 498L67.0833 499.972L68.0278 500.917L70 502.611L71 503.361L73 504.833L74 505.556L76 506.75L77 507.222L78 507.778L79 508.222L80 508.75L82 509.611L84 510.306L85 510.611L86 510.861L88 511.361L90 511.778L91 511.917L93 512L94 512L95 512L98 512L112 512L150 512L337 512L395 512L412 512L417 512L419 512L421 511.917L423 511.611L424 511.361L425 511.139L426 510.861L427 510.611L428 510.306L430 509.611L432 508.75L433 508.222L434 507.778L435 507.222L437 506.139L438 505.556L439 504.833L441 503.361L442 502.611L443.972 500.917L444.917 499.972L446.583 498L448 496L448.667 495L449.972 493L450.611 492L451.167 491L451.722 490L452.167 489L452.972 487L453.333 486L454 484L454.583 482L454.806 481L455.194 479L455.389 478L455.611 477L455.917 475L455.972 474L456 473L456 471L456 466L456 451L456 403L456 130L456 59L456 45L456 42L456 40L455.972 38L455.917 37L455.611 35L455.389 34L455.194 33L454.806 31L454.583 30L454 28L453.667 27L453.333 26L452.611 24L451.722 22L450.611 20L449.972 19L448.667 17L448 16L446.583 14L444.917 12.0278L443.972 11.0833L442 9.38889L441 8.63889L439 7.16666L438 6.44446L436 5.25L435 4.77777L434 4.22223L433 3.77777L432 3.25L430 2.38889L429 2.02777L427 1.33334L426 1L424 0.416656L423 0.222229L422 0.0833435L420 0L419 0L418 0L415 0L400 0L362 0L176 0L117 0L99 0L96 0L94 0L92 0L90 0.0833435L88 0.416656z"/>
<path style="fill:none; stroke:none;" d="M424 0L424.778 0.805573L425.306 0.972229L426.111 1.36111L427.028 1.66666L429 2.38889L431 3.25L432 3.77777L434 4.77777L435 5.25L437 6.44446L438 7.16666L440 8.63889L441 9.38889L443 11.0833L444.917 13L446.583 15L448 17L448.667 18L449.972 20L450.611 21L451.722 23L452.611 25L453.333 27L453.667 28L454 29L454.583 31L454.806 32L455.194 34L455.389 35L455.611 36L455.917 38L455.972 39L456 41L456 42L456 45L456 57L456 119L456 392L456 449L456 464L456 470L456 472L455.972 473L455.917 474L455.611 476L455.389 477L455 479L454.806 480L454.583 481L454.306 482L453.667 484L452.972 486L452.167 488L451.722 489L451.167 490L450.611 491L449.972 492L448.667 494L448 495L446.583 497L444.917 499L443 500.917L441 502.611L440 503.361L439 504.139L437 505.556L435 506.75L434 507.222L433 507.778L432 508.222L431 508.75L429 509.611L427 510.306L426.056 510.583L425.056 510.778L424.5 510.917L423 511L423.778 511.722L424.306 511.75L425.111 511.944L426.028 511.972L428 512L429 512L431 512L448 512L512 512L512 0L424 0z"/>
<path style="fill:#bbd8ff; stroke:none;" d="M92 16.4167L91 16.6945L89 17.3889L88 17.8333L87 18.25L86 18.7778L85 19.25L83 20.4722L82 21.25L81 22.0833L79.0278 24L78.0833 25L76.4722 27L75.8611 28L75.2778 29L74.4444 31L74.1667 32L73.6389 34L73.3889 35L73.0833 37L73 39L73 41L73 43L73 46L73 64L73 121L73 381L73 452L73 469L73 471L73 472L73.0278 474L73.0833 475L73.3889 477L73.6389 478L73.8611 479L74.4722 481L75.4167 483L76.6944 485L78.2222 487L79.0833 488L81 489.917L83 491.528L84 492.139L85 492.75L86 493.222L88 494.167L89 494.611L91 495.306L92 495.583L93 495.778L94 495.917L96 496L97 496L99 496L107 496L158 496L336 496L391 496L406 496L411 496L413 496L414 495.972L415 495.917L417 495.611L418 495.389L420 495L422 494.583L423 494.306L425 493.611L426 493.167L427 492.722L429 491.528L430 490.75L431 489.917L432.917 488L433.778 487L435.306 485L435.972 484L436.583 483L437.528 481L437.833 480L438.361 478L438.611 477L438.917 475L438.972 474L439 473L439 471L439 465L439 446L439 390L439 366L439 129L439 128L439 59L439 43L439 41L439 40L438.972 38L438.917 37L438.611 35L438.361 34L437.833 32L437.556 31L437.139 30L436.139 28L435.528 27L433.917 25L432.972 24L431 22.0833L429 20.4722L428 19.8611L426 18.7778L424 17.8611L423 17.4722L422 17.25L421 17.0555L419 16.7778L418 16.6111L417 16.3889L415 16.0833L413 16L411 16L407 16L353 16L333 16L175 16L119 16L102 16L99 16L97 16L96 16L94 16.0833L92 16.4167z"/>
<path style="fill:#116fff; stroke:none;" d="M105 37.5L103 38.4167L102 39.0278L101 39.6945L99.0278 41.2222L98.0833 42.0833L96.4722 44L95.25 46L94.7778 47L94.25 48L93.4722 50L93.25 51L93.0278 53L93 54L93 56L93 58L93 62L93 131L93 138L93 140L93 141L93 143L93.0833 145L93.25 146L93.4722 147L93.8611 148L94.7778 150L95.8611 152L96.4722 153L98.0833 154.917L99.0278 155.778L100 156.583L102 157.972L103 158.583L105 159.5L107 159.917L109 160L110 160L112 160L125 160L176 160L342 160L387 160L397 160L399 160L400 160L402 159.972L403 159.917L405 159.583L406 159.306L408 158.611L409 158.167L410 157.722L412 156.528L413.917 154.917L415.528 153L416.139 152L417.222 150L417.75 149L418.528 147L418.75 146L418.917 145L419 143L419 142L419 140L419 131L419 64L419 59L419 57L419 56L419 54L418.972 53L418.75 51L418.528 50L417.75 48L417.222 47L416.139 45L415.528 44L413.917 42.0833L412 40.4722L410 39.2778L408 38.3889L407 38.0278L405 37.4167L403 37.0833L402 37.0278L400 37L399 37L396 37L382 37L358 37L328 37L173 37L127 37L113 37L110 37L109 37L107 37.0833L105 37.5z"/>
<path style="fill:#bbd8ff; stroke:none;" d="M110 53L109 54L109 143L110 144L402 144L403 143L403 54L402 53L110 53z"/>
<path style="fill:#116fff; stroke:none;" d="M105 181.472L104 181.861L102 182.778L101 183.25L99.0278 184.472L97.25 186.083L95.8611 188L95.25 189L94.7778 190L93.8611 192L93.4722 193L93.0833 195L93 197L93 198L93 200L93 210L93 241L93 245L93 247L93 249L93.0278 250L93.25 252L93.4722 253L94.25 255L94.7778 256L95.25 257L96.4722 259L97.25 259.972L98.0833 260.917L100 262.528L102 263.722L103 264.139L104 264.528L105 264.75L106 264.917L108 265L110 265L112 265L117 265L157 265L169 265L171 265L172 265L174 264.917L175 264.778L177 264.306L179 263.583L180 263.083L181 262.5L182.917 260.917L184.583 259L185.917 257L186.917 255L187.583 253L187.917 251L188 249L188 248L188 246L188 237L188 205L188 200L188 198L188 197L187.917 195L187.583 193L186.917 191L186.444 190L185.278 188L184.583 187.028L183.778 186.083L181.972 184.472L180 183.278L179 182.833L178 182.389L176 181.694L175 181.417L173 181.083L172 181.028L170 181L168 181L165 181L125 181L113 181L111 181L110 181L109 181L107 181.083L105 181.472M220 181.472L219 181.861L217 182.861L216 183.472L214.028 185.083L212.25 187L211.472 188L210.278 190L209.389 192L209.028 193L208.417 195L208.083 197L208 199L208 200L208 202L208 211L208 241L208 244L208 246L208.028 248L208.083 249L208.417 251L208.694 252L209.389 254L209.833 255L210.278 256L210.833 257L211.389 257.972L212.694 259.778L213.417 260.583L214.222 261.306L216.028 262.611L217 263.167L219 264.139L220 264.528L221 264.75L222 264.917L224 265L226 265L228 265L233 265L272 265L284 265L286 265L287 265L289 264.917L290 264.778L292 264.306L294 263.583L295.972 262.583L297.778 261.306L298.583 260.583L299.972 258.917L300.611 257.972L301.722 256L302.167 255L302.972 253L303.583 251L303.917 249L304 247L304 246L304 244L304 235L304 206L304 201L304 199L303.972 198L303.917 197L303.583 195L303.306 194L302.611 192L302.167 191L301.722 190L300.528 188L299.75 187L297.972 185.083L296 183.472L295 182.861L293 181.861L292 181.472L291 181.25L290 181.083L288 181L287 181L285 181L280 181L239 181L227 181L225 181L223 181.028L222 181.083L220 181.472M336 181.417L335 181.722L333 182.556L331 183.722L330.028 184.417L328.222 186.083L327.417 187.028L326.083 189L325.083 191L324.417 193L324.083 195L324 197L324 198L324 200L324 209L324 241L324 246L324 248L324 250L324.083 252L324.25 253L324.472 254L324.861 255L325.278 256L326.472 258L327.25 259L329.028 260.917L331 262.528L332 263.139L334 264.139L335 264.528L336 264.75L337 264.917L339 265L341 265L343 265L348 265L388 265L400 265L402 265L403 265L405 264.917L406 264.778L408 264.306L410 263.583L412 262.5L413.917 260.917L415.528 259L416.139 258L417.222 256L417.75 255L418.528 253L418.75 252L418.917 251L419 249L419 248L419 246L419 236L419 205L419 199L419 197L418.972 196L418.917 195L418.528 193L417.75 191L417.222 190L416.75 189L416.139 188L414.75 186.083L412.972 184.472L411 183.25L410 182.778L409 182.25L407 181.472L405 181.083L404 181.028L403 181L401 181L394 181L355 181L343 181L341 181L340 181L338 181.083L336 181.417z"/>
<path style="fill:#bbd8ff; stroke:none;" d="M109 197L109 249L172 249L172 197L109 197M225 197L225 249L287 249L287 197L225 197M340 197L340 249L403 249L403 197L340 197z"/>
<path style="fill:#116fff; stroke:none;" d="M105 286.472L104 286.861L102 287.778L101 288.25L99.0278 289.472L97.25 291.083L95.8611 293L95.25 294L94.7778 295L93.8611 297L93.4722 298L93.25 299L93.0833 300L93 302L93 304L93 305L93 307L93 314L93 347L93 351L93 353L93.0278 355L93.0833 356L93.4722 358L94.25 360L94.7778 361L95.25 362L96.4722 363.972L97.25 364.917L98.0833 365.778L99.0278 366.583L101 367.972L103 369.083L104 369.5L106 369.917L107 369.972L109 370L110 370L111 370L113 370L118 370L157 370L169 370L171 370L172 370L174 369.917L175 369.778L177 369.306L179 368.583L181 367.5L182.917 365.917L184.528 364L185.139 363L186.222 361L186.75 360L187.528 358L187.75 357L187.917 356L188 354L188 353L188 351L188 341L188 311L188 306L188 304L188 302L187.917 300L187.778 299L187.583 298L186.917 296L186.444 295L185.278 293L184.583 292.028L183.778 291.083L181.972 289.472L180 288.25L179 287.778L178 287.25L176 286.472L174 286.083L173 286.028L171 286L169 286L165 286L125 286L113 286L111 286L110 286L109 286L107 286.083L105 286.472M220 286.472L219 286.861L217 287.861L216 288.472L214.028 290.083L212.25 292L211.472 293L210.278 295L209.389 297L209.028 298L208.417 300L208.083 302L208 304L208 305L208 307L208 316L208 346L208 349L208 351L208.028 353L208.083 354L208.417 356L208.694 357L209.389 359L209.833 360L210.278 361L211.472 363L213.083 364.972L214.028 365.917L216 367.528L217 368.139L219 369.139L220 369.528L221 369.75L222 369.917L224 370L226 370L228 370L233 370L272 370L284 370L286 370L287 370L289 369.917L290 369.778L292 369.306L294 368.583L295 368.083L296 367.5L297.972 365.917L298.917 364.972L300.5 363L301.083 362L301.583 361L302.389 359L303.167 357L303.528 356L303.917 354L304 352L304 351L304 349L304 340L304 311L304 306L304 304L303.972 303L303.917 302L303.583 300L303.306 299L302.611 297L302.167 296L301.722 295L300.528 293L298.917 291.028L297.972 290.083L296 288.472L295 287.861L293 286.861L292 286.472L291 286.25L290 286.083L288 286L286 286L284 286L279 286L239 286L227 286L225 286L223 286.028L222 286.083L220 286.472M336 286.417L334 287.083L332 288.083L330.028 289.417L329.083 290.222L327.417 292.028L326.722 293L325.556 295L324.722 297L324.417 298L324.083 300L324 302L324 303L324 305L324 309L324 372L324 440L324 455L324 458L324 459L324 460L324.083 462L324.5 464L324.917 465L325.417 466L326.694 468L328.222 469.972L329.083 470.917L331 472.528L333 473.722L334 474.139L335 474.528L336 474.75L337 474.917L339 475L340 475L342 475L347 475L387 475L399 475L401 475L402 475L403 475L405 474.917L407 474.583L408 474.306L410 473.583L412 472.5L413.917 470.917L415.528 469L416.139 468L417.222 466L418.139 464L418.528 463L418.917 461L419 459L419 458L419 457L419 454L419 391L419 321L419 308L419 305L419 303L419 302L418.917 300L418.75 299L418.528 298L418.139 297L417.167 295L415.972 293L415.306 292.028L414.583 291.083L412.917 289.472L411 288.25L410 287.778L409 287.25L407 286.472L405 286.083L404 286.028L403 286L401 286L395 286L356 286L344 286L342 286L341 286L340 286L338 286.083L336 286.417z"/>
<path style="fill:#bbd8ff; stroke:none;" d="M109 302L109 354L172 354L172 302L109 302M225 302L225 354L287 354L287 302L225 302M340 302L340 459L402 459L402 439L402 432L402 430L402.028 428L402.083 427L402.389 425L402.611 424L402.917 422L403 420L403 419L403 416L403 407L403 381L403 302L340 302z"/>
<path style="fill:#116fff; stroke:none;" d="M105 391.472L104 391.861L102 392.778L101 393.25L99.0278 394.472L97.25 396.083L95.8611 398L95.25 399L94.7778 400L93.8611 402L93.4722 403L93.0833 405L93 407L93 408L93 410L93 420L93 451L93 455L93 457L93 459L93.0278 460L93.25 462L93.4722 463L94.25 465L94.7778 466L95.25 467L96.4722 469L97.25 469.972L98.0833 470.917L100 472.528L102 473.722L103 474.139L104 474.528L105 474.75L106 474.917L108 475L110 475L112 475L117 475L157 475L169 475L171 475L172 475L174 474.917L175 474.778L177 474.306L179 473.583L181 472.5L182.917 470.917L184.528 469L185.139 468L186.222 466L186.75 465L187.528 463L187.75 462L187.917 461L188 459L188 458L188 456L188 446L188 416L188 411L188 409L188 407L187.917 405L187.778 404L187.583 403L186.917 401L186.444 400L185.278 398L184.583 397.028L183.778 396.083L181.972 394.472L180 393.278L179 392.833L178 392.389L176 391.694L175 391.417L173 391.083L172 391.028L170 391L168 391L165 391L125 391L113 391L111 391L110 391L109 391L107 391.083L105 391.472M220 391.472L219 391.861L217 392.861L216 393.472L214.028 395.083L212.25 397L211.472 398L210.278 400L209.389 402L209.028 403L208.417 405L208.083 407L208 409L208 410L208 412L208 421L208 451L208 454L208 456L208.028 458L208.083 459L208.417 461L208.694 462L209.389 464L209.833 465L210.278 466L210.833 467L211.389 467.972L212.694 469.778L213.417 470.583L214.222 471.306L216.028 472.611L217 473.167L219 474.139L220 474.528L221 474.75L222 474.917L224 475L226 475L228 475L233 475L272 475L284 475L286 475L287 475L289 474.917L290 474.778L292 474.306L294 473.583L295 473.083L296 472.5L297.972 470.917L298.917 469.972L300.528 468L301.722 466L302.167 465L302.972 463L303.583 461L303.917 459L304 457L304 456L304 454L304 445L304 415L304 412L304 410L303.972 408L303.917 407L303.583 405L303.306 404L302.611 402L302.167 401L301.722 400L300.528 398L298.917 396.028L297.972 395.083L296 393.472L295 392.861L293 391.861L292 391.472L291 391.25L290 391.083L288 391L286 391L284 391L279 391L239 391L227 391L225 391L223 391.028L222 391.083L220 391.472z"/>
<path style="fill:#bbd8ff; stroke:none;" d="M109 407L109 459L172 459L172 407L109 407M225 407L225 459L287 459L287 407L225 407z"/>
</svg>
