<?xml version="1.0" standalone="no"?>
<!DOCTYPE svg PUBLIC "-//W3C//DTD SVG 20010904//EN"
 "http://www.w3.org/TR/2001/REC-SVG-20010904/DTD/svg10.dtd">
<svg version="1.0" xmlns="http://www.w3.org/2000/svg"
 width="512.000000pt" height="512.000000pt" viewBox="0 0 512.000000 512.000000"
 preserveAspectRatio="xMidYMid meet">
<metadata>
Created by potrace 1.16, written by Peter Selinger 2001-2019
</metadata>
<g transform="translate(0.000000,512.000000) scale(0.100000,-0.100000)"
fill="#000000" stroke="none">
<path d="M2241 5104 c-575 -73 -1075 -318 -1485 -728 -137 -136 -148 -149
-231 -256 -141 -182 -249 -372 -350 -615 -79 -192 -140 -443 -165 -680 -14
-130 -11 -453 5 -580 35 -286 129 -595 253 -835 24 -47 51 -98 60 -115 17 -34
142 -227 152 -235 3 -3 17 -21 30 -40 13 -19 29 -40 35 -46 5 -6 28 -33 50
-60 65 -80 194 -212 281 -288 78 -69 278 -216 339 -250 17 -9 53 -30 80 -47
46 -27 134 -71 273 -136 67 -31 262 -94 372 -121 225 -55 333 -67 625 -67 258
0 341 7 500 41 148 32 203 47 290 76 91 30 102 34 165 61 19 8 64 27 100 42
117 49 390 207 446 260 6 5 22 17 34 25 12 8 30 22 40 30 10 8 38 31 62 50 88
70 309 299 373 385 17 22 33 42 36 45 15 12 107 154 171 262 164 282 253 536
315 893 18 108 27 562 12 675 -19 150 -40 258 -75 385 -43 156 -64 212 -161
435 -45 102 -222 386 -295 472 -13 14 -39 46 -58 70 -61 75 -232 248 -305 306
-38 31 -72 60 -75 63 -3 3 -51 38 -108 78 -210 148 -434 260 -674 337 -46 15
-102 33 -125 40 -44 14 -209 49 -278 58 -149 21 -213 25 -400 25 -115 -1 -257
-7 -314 -15z m1476 -975 c40 -15 73 -48 94 -94 18 -38 19 -101 19 -1475 0
-1380 -1 -1437 -19 -1476 -10 -23 -36 -54 -57 -70 l-37 -29 -1157 0 -1157 0
-37 29 c-21 16 -47 47 -57 70 -18 39 -19 96 -19 1474 0 1556 -3 1470 53 1531
48 52 -1 50 1214 51 778 0 1140 -3 1160 -11z"/>
<path d="M1525 3968 c-11 -6 -34 -24 -52 -41 -51 -48 -54 -86 -51 -534 3 -353
5 -402 20 -429 24 -43 72 -82 111 -89 18 -3 483 -4 1034 -3 998 3 1002 3 1030
24 15 11 38 36 51 54 22 33 22 33 22 475 l0 442 -23 34 c-12 18 -38 44 -56 56
l-34 23 -1016 0 c-720 -1 -1022 -4 -1036 -12z m2043 -104 l22 -15 0 -420 c0
-406 -1 -420 -20 -439 -20 -20 -33 -20 -1010 -20 -977 0 -990 0 -1010 20 -19
19 -20 33 -20 439 l0 420 22 15 c20 14 132 16 1008 16 876 0 988 -2 1008 -16z"/>
<path d="M1516 2638 c-13 -18 -16 -52 -16 -165 0 -194 -13 -183 215 -183 228
0 215 -12 215 188 0 132 -2 151 -18 165 -16 15 -45 17 -200 17 -176 0 -181 -1
-196 -22z m314 -158 l0 -80 -110 0 -110 0 0 80 0 80 110 0 110 0 0 -80z"/>
<path d="M2079 2643 c-15 -18 -26 -229 -14 -289 11 -62 18 -64 208 -64 231 0
217 -12 217 181 0 85 -5 159 -10 170 -10 18 -23 19 -199 19 -163 0 -190 -2
-202 -17z m311 -163 l0 -80 -110 0 -110 0 0 80 0 80 110 0 110 0 0 -80z"/>
<path d="M2642 2648 c-8 -8 -12 -60 -12 -169 0 -202 -15 -189 216 -189 153 0
173 2 187 18 14 16 17 43 17 173 0 107 -4 159 -12 167 -17 17 -379 17 -396 0z
m308 -168 l0 -80 -110 0 -110 0 0 80 0 80 110 0 110 0 0 -80z"/>
<path d="M3206 2644 c-13 -13 -16 -42 -16 -165 0 -201 -14 -189 215 -189 228
0 215 -11 215 183 0 200 15 187 -215 187 -154 0 -186 -3 -199 -16z m304 -164
l0 -80 -110 0 -110 0 0 80 0 80 110 0 110 0 0 -80z"/>
<path d="M1540 2083 c-35 -13 -40 -35 -40 -183 0 -130 2 -149 18 -163 27 -25
372 -25 396 -1 22 22 23 300 2 330 -13 17 -29 19 -188 21 -95 1 -180 0 -188
-4z m290 -183 l0 -80 -110 0 -110 0 0 80 0 80 110 0 110 0 0 -80z"/>
<path d="M2089 2071 c-23 -19 -24 -24 -24 -169 0 -111 3 -153 14 -165 12 -15
39 -17 200 -17 132 0 191 4 199 12 8 8 12 60 12 169 0 202 14 189 -211 189
-149 0 -169 -2 -190 -19z m301 -171 l0 -80 -110 0 -110 0 0 80 0 80 110 0 110
0 0 -80z"/>
<path d="M2652 2074 c-21 -15 -22 -21 -22 -173 0 -109 4 -161 12 -169 17 -17
379 -17 396 0 8 8 12 60 12 169 0 202 14 189 -210 189 -134 0 -170 -3 -188
-16z m298 -174 l0 -80 -110 0 -110 0 0 80 0 80 110 0 110 0 0 -80z"/>
<path d="M3230 2083 c-39 -14 -40 -23 -40 -473 0 -411 1 -438 18 -453 16 -15
45 -17 200 -17 176 0 181 1 196 22 14 20 16 79 16 453 0 236 -4 435 -8 441
-18 28 -55 34 -209 33 -87 0 -165 -3 -173 -6z m280 -473 l0 -371 -107 3 -108
3 -3 368 -2 367 110 0 110 0 0 -370z"/>
<path d="M1520 1490 c-18 -18 -20 -33 -20 -163 0 -200 -15 -187 214 -187 164
0 185 2 199 18 14 16 17 43 17 165 0 198 13 187 -215 187 -162 0 -177 -2 -195
-20z m305 -165 l0 -80 -107 -3 -108 -3 0 86 0 86 108 -3 107 -3 0 -80z"/>
<path d="M2084 1496 c-17 -13 -19 -27 -19 -169 0 -116 3 -158 14 -170 20 -25
371 -25 395 -1 13 13 16 43 16 168 0 135 -2 155 -18 169 -16 15 -45 17 -193
17 -136 0 -180 -3 -195 -14z m304 -173 l3 -83 -111 0 -110 0 0 85 0 86 108 -3
107 -3 3 -82z"/>
<path d="M2647 1492 c-24 -27 -25 -312 -1 -336 13 -13 45 -16 198 -16 128 0
186 4 194 12 8 8 12 60 12 169 0 130 -3 160 -16 173 -13 13 -45 16 -193 16
-160 0 -180 -2 -194 -18z m303 -167 l0 -85 -110 0 -110 0 0 78 c0 43 3 82 7
85 3 4 53 7 110 7 l103 0 0 -85z"/>
</g>
</svg>
